# xmcd
#
# Track frame offsets:
#	150
#	17185
#	34737
#	48530
#	62230
#	76577
#	94193
#	106621
#	119828
#	133317
#	150761
#	167508
#	182593
#	194183
#	208934
#	223619
#	235049
#	253045
#	266747
#	282168
#	297457
#	314563
#
# Disc length: 4396 seconds
#
# Revision: 1
# Processed by: cddbd v1.5.2PL0 Copyright (c) Steve Scherf et al.
# Submitted via: audiograbber 1.83.01
#
DISCID=4b112a16
DTITLE=Various Artist - The Best Of Country Music Channel 2009 [Disc 1]
DYEAR=2009
DGENRE=Country
TTITLE0=Keith Urban - Sweet Thing
TTITLE1=Adam Brand - Hell Of A Ride
TTITLE2=Kasey Chambers and Shane Nicholson - Monkey On A Wire
TTITLE3=John Williamson - Hillbilly Road
TTITLE4=Troy Cassar-Daley - Big Big Love
TTITLE5=The McClymonts - Finally Over Blue
TTITLE6=Steve Forde - I Ain't That Guy
TTITLE7=The Sunny Cowgirls - Dancing On The Darling
TTITLE8=Adam Harvey - Genie In A Bottle
TTITLE9=Sara Storer - Sitting Here With Fay
TTITLE10=Shea Fisher - Don't Chase Me
TTITLE11=Melinda Schneider and Paul Kelly - Still Here
TTITLE12=James Blundell - Good Wood
TTITLE13=Victoria Baillie - Make Me
TTITLE14=Shane Nicholson - Summer Dress
TTITLE15=Kirsty Lee Akers - Better Days
TTITLE16=Australian Country Music Unites - Tangerine Sky
TTITLE17=Jasmine Rae - Look It Up
TTITLE18=Markus Meier - In My Boots
TTITLE19=Talia Wittman - The Reckless Side Of Me
TTITLE20=Rob Black - We Have Kids
TTITLE21=Sinead Burgess - You Get Me
EXTD=
EXTT0=
EXTT1=
EXTT2=
EXTT3=
EXTT4=
EXTT5=
EXTT6=
EXTT7=
EXTT8=
EXTT9=
EXTT10=
EXTT11=
EXTT12=
EXTT13=
EXTT14=
EXTT15=
EXTT16=
EXTT17=
EXTT18=
EXTT19=
EXTT20=
EXTT21=
PLAYORDER=
